<?xml version="1.0" encoding="UTF-8"?>
<!-- Generator: Adobe Illustrator 26.4.0, SVG Export Plug-In . SVG Version: 6.00 Build 0)  -->
<svg xmlns="http://www.w3.org/2000/svg"
     version="1.1"
     id="Layer_1"
     x="0px"
     y="0px"
     viewBox="0 0 1000 1000"
     style="enable-background:new 0 0 1000 1000;"
     xml:space="preserve">
<path fill="#ffffff"
      d="M837.5,841c47.6-47.9,84.7-105.5,108.7-168.8c24-63.4,34.5-131.1,30.8-198.8l-252.3,254l-252.3,254  c67.2,3.8,134.5-6.8,197.5-31C732.8,926.2,789.9,888.9,837.5,841L837.5,841z"></path>
    <path fill="#ffffff"
          d="M590.7,592.5l48.7-142.4c11.8-34.6,31.3-66,57.1-91.9L864.6,189c45.5,54.2,78.6,117.9,96.9,186.5L837.5,500.2  c-25.7,25.9-56.9,45.5-91.3,57.4l-141.4,49.1l-48.7,142.4c-11.8,34.6-31.3,66-57.1,91.9L375.1,965.7  c-68.1-18.4-131.4-51.7-185.2-97.5L358,699c25.7-25.9,56.9-45.5,91.3-57.4L590.7,592.5L590.7,592.5z"></path>
    <path fill="#ffffff"
          d="M407.4,407.8l141.4-49.1c34.4-11.9,65.6-31.6,91.3-57.4l168.1-169.2C754.3,86.3,691,53,622.9,34.6L499,159.3  c-25.7,25.9-45.2,57.3-57.1,91.9l-48.7,142.4l-141.4,49.1c-34.4,11.9-65.6,31.6-91.3,57.4L36.6,624.9  c18.3,68.6,51.3,132.2,96.9,186.5l168.1-169.2c25.7-25.9,45.2-57.3,57.1-91.9L407.4,407.8L407.4,407.8z"></path>
    <path fill="#ffffff"
          d="M160.5,159.3c47.6-47.9,104.8-85.2,167.7-109.4c62.9-24.2,130.2-34.7,197.5-31L273.4,273L21.1,527  c-3.7-67.7,6.7-135.4,30.8-198.8C75.9,264.8,112.9,207.3,160.5,159.3L160.5,159.3z"></path>
</svg>
