<svg xmlns="http://www.w3.org/2000/svg" viewBox="0 0 20 20" fill="none">
    <path d="M7.14223 15.8503V9.11361H3.7684C2.90821 9.1626 2.09936 9.53883 1.50771 10.1651C0.916049 10.7915 0.586426 11.6204 0.586426 12.482C0.586426 13.3436 0.916049 14.1725 1.50771 14.7988C2.09936 15.4251 2.90821 15.8014 3.7684 15.8503H7.15315H7.14223ZM1.49735 12.4874C1.49735 11.8793 1.73892 11.2961 2.16892 10.8661C2.59892 10.4361 3.18213 10.1945 3.79024 10.1945H6.08313V14.7803H3.79024C3.18213 14.7803 2.59892 14.5388 2.16892 14.1088C1.73892 13.6788 1.49735 13.0955 1.49735 12.4874ZM15.9207 4.53874H12.5469V11.2755H15.9317C16.7918 11.2265 17.6007 10.8503 18.1924 10.2239C18.784 9.59763 19.1136 8.76869 19.1136 7.90711C19.1136 7.04552 18.784 6.21659 18.1924 5.59027C17.6007 4.96396 16.7918 4.58773 15.9317 4.53874H15.9207ZM15.9207 10.1945H13.6278V5.60875H15.9207C16.5289 5.60875 17.1121 5.85033 17.5421 6.28033C17.9721 6.71033 18.2136 7.29353 18.2136 7.90165C18.2136 8.50976 17.9721 9.09297 17.5421 9.52297C17.1121 9.95297 16.5289 10.1945 15.9207 10.1945ZM15.5058 16.2653C15.5058 14.4091 13.9991 12.9023 12.1429 12.9023H8.75818V16.2762C8.75818 17.171 9.11363 18.0291 9.74635 18.6618C10.3791 19.2945 11.2372 19.65 12.132 19.65C13.0268 19.65 13.8849 19.2945 14.5177 18.6618C15.1504 18.0291 15.5058 17.171 15.5058 16.2762V16.2653ZM9.85003 16.2653V13.9724H12.1429C12.5964 13.9724 13.0397 14.1068 13.4168 14.3588C13.7939 14.6107 14.0877 14.9688 14.2613 15.3878C14.4348 15.8068 14.4802 16.2678 14.3918 16.7126C14.3033 17.1574 14.0849 17.5659 13.7642 17.8866C13.4436 18.2072 13.035 18.4256 12.5902 18.5141C12.1455 18.6026 11.6844 18.5572 11.2655 18.3836C10.8465 18.2101 10.4884 17.9162 10.2365 17.5391C9.98451 17.162 9.85003 16.7187 9.85003 16.2653ZM7.55714 7.48674H10.931V4.11291C10.9288 3.4461 10.7291 2.79488 10.3571 2.2415C9.98504 1.68811 9.45737 1.25738 8.8407 1.0037C8.22402 0.750012 7.54601 0.684755 6.89227 0.816165C6.23853 0.947576 5.63839 1.26976 5.16765 1.74203C4.6969 2.2143 4.37666 2.81548 4.24736 3.46964C4.11806 4.12379 4.18551 4.8016 4.44118 5.41745C4.69686 6.0333 5.12929 6.55958 5.68388 6.92982C6.23846 7.30006 6.89032 7.49766 7.55714 7.49766V7.48674ZM7.55714 1.83094C8.16525 1.83094 8.74846 2.07251 9.17846 2.50251C9.60846 2.93251 9.85003 3.51572 9.85003 4.12383V6.41673H7.55714C6.94902 6.41673 6.36582 6.17515 5.93582 5.74515C5.50582 5.31515 5.26424 4.73194 5.26424 4.12383C5.26424 3.51572 5.50582 2.93251 5.93582 2.50251C6.36582 2.07251 6.94902 1.83094 7.55714 1.83094Z"
          fill="#7CF072" />
</svg>