<svg width="24" height="24" viewBox="0 0 24 24" fill="none" xmlns="http://www.w3.org/2000/svg">
    <path d="M3.0576 10.5003C3.7785 6.24465 7.502 3.00015 12 3.00015C16.498 3.00015 20.2215 6.24465 20.9424 10.5003H23.9995C23.2551 4.58235 18.1739 0 12 0C5.8293 0 0.7463 4.58235 0 10.5003H3.0576ZM20.9424 13.5C20.2215 17.7538 16.498 21.0001 12 21.0001C7.502 21.0001 3.7785 17.7538 3.0576 13.5H0.0005C0.7463 19.4179 5.8293 24.0003 12 24.0003C18.1739 24.0003 23.2551 19.4179 24 13.5H20.9424Z"
          fill="#a5c341" />
    <path d="M11.9999 6.0003C8.6865 6.0003 6 8.6868 6 12.0001C6 15.3135 8.6865 18 11.9999 18C15.3146 18 17.9997 15.3135 17.9997 12.0001C17.9997 8.6868 15.3146 6.0003 11.9999 6.0003ZM11.9999 15.0003C11.2042 15.0003 10.4411 14.6842 9.8784 14.1216C9.3158 13.5589 8.9997 12.7958 8.9997 12.0001C8.9997 11.2045 9.3158 10.4414 9.8784 9.87872C10.4411 9.31608 11.2042 9 11.9999 9C12.7955 9 13.5586 9.31608 14.1213 9.87872C14.6839 10.4414 15 11.2045 15 12.0001C15 12.7958 14.6839 13.5589 14.1213 14.1216C13.5586 14.6842 12.7955 15.0003 11.9999 15.0003Z"
          fill="#a5c341" />
</svg>